<mxfile host="65bd71144e">
    <diagram id="yn1B_VnHwJeauK5d2Ksh" name="Page-1">
        <mxGraphModel dx="308" dy="357" grid="1" gridSize="10" guides="1" tooltips="1" connect="1" arrows="1" fold="1" page="1" pageScale="1" pageWidth="850" pageHeight="1100" math="0" shadow="0">
            <root>
                <mxCell id="0"/>
                <mxCell id="1" parent="0"/>
                <mxCell id="2" value="Ứng dụng quản lý nhân sự v1.0" style="rounded=0;html=1;whiteSpace=wrap;fontColor=#F0F0F0;labelBackgroundColor=#0000FF;fontSize=19;fontStyle=1" vertex="1" parent="1">
                    <mxGeometry x="240" width="310" height="40" as="geometry"/>
                </mxCell>
                <mxCell id="3" value="Nguyễn Văn A" style="rounded=0;whiteSpace=wrap;html=1;labelBackgroundColor=none;fontColor=#F0F0F0;labelBorderColor=#4D4D4D;" vertex="1" parent="1">
                    <mxGeometry x="120" y="80" width="120" height="60" as="geometry"/>
                </mxCell>
                <mxCell id="4" value="Nguyễn Văn B&lt;span style=&quot;white-space: pre&quot;&gt;&#9;&lt;/span&gt;" style="rounded=0;whiteSpace=wrap;html=1;labelBackgroundColor=none;fontColor=#F0F0F0;labelBorderColor=#4D4D4D;" vertex="1" parent="1">
                    <mxGeometry x="360" y="80" width="120" height="60" as="geometry"/>
                </mxCell>
                <mxCell id="5" value="Nguyễn Văn C" style="rounded=0;whiteSpace=wrap;html=1;labelBackgroundColor=none;fontColor=#F0F0F0;labelBorderColor=#4D4D4D;" vertex="1" parent="1">
                    <mxGeometry x="600" y="80" width="120" height="60" as="geometry"/>
                </mxCell>
                <mxCell id="7" value="Nguyễn Văn A" style="rounded=0;whiteSpace=wrap;html=1;labelBackgroundColor=none;fontColor=#F0F0F0;labelBorderColor=#4D4D4D;" vertex="1" parent="1">
                    <mxGeometry x="120" y="240" width="170" height="60" as="geometry"/>
                </mxCell>
                <mxCell id="8" value="&lt;div style=&quot;text-align: left; font-size: 12px;&quot;&gt;Tên: Nguyễn Văn A&lt;/div&gt;&lt;div style=&quot;text-align: left; font-size: 12px;&quot;&gt;Ngày sinh: 01-01-1999&lt;/div&gt;Ngày bắt đầu làm: 12/2010&lt;br style=&quot;font-size: 12px;&quot;&gt;&lt;div style=&quot;text-align: left; font-size: 12px;&quot;&gt;Phòng ban: Hành Chánh&lt;/div&gt;&lt;div style=&quot;text-align: left; font-size: 12px;&quot;&gt;Số ngày làm việc: 29&lt;/div&gt;" style="whiteSpace=wrap;html=1;aspect=fixed;labelBackgroundColor=none;fontColor=#F0F0F0;labelBorderColor=#4D4D4D;fontSize=12;" vertex="1" parent="1">
                    <mxGeometry x="120" y="320" width="170" height="170" as="geometry"/>
                </mxCell>
                <mxCell id="9" value="Thay đổi giao diện" style="rounded=1;whiteSpace=wrap;html=1;labelBackgroundColor=#666666;fontColor=#F0F0F0;labelBorderColor=#333333;" vertex="1" parent="1">
                    <mxGeometry x="440" y="420" width="120" height="60" as="geometry"/>
                </mxCell>
                <mxCell id="10" value="Chọn vào tên để xem chi tiết" style="rounded=0;whiteSpace=wrap;html=1;labelBackgroundColor=none;fontColor=#F0F0F0;labelBorderColor=#4D4D4D;" vertex="1" parent="1">
                    <mxGeometry x="440" y="360" width="120" height="60" as="geometry"/>
                </mxCell>
            </root>
        </mxGraphModel>
    </diagram>
</mxfile>